<svg width="12" height="8" viewBox="0 0 12 8" fill="none" xmlns="http://www.w3.org/2000/svg">
<path fill-rule="evenodd" clip-rule="evenodd" d="M3.85396 0.646001C3.80752 0.599438 3.75234 0.562495 3.69159 0.537288C3.63085 0.512082 3.56573 0.499107 3.49996 0.499107C3.43419 0.499107 3.36907 0.512082 3.30833 0.537288C3.24758 0.562495 3.19241 0.599438 3.14596 0.646001L0.145961 3.646C0.0993977 3.69245 0.0624552 3.74762 0.0372486 3.80837C0.012042 3.86911 -0.000932693 3.93423 -0.000932693 4C-0.000932693 4.06577 0.012042 4.13089 0.0372486 4.19163C0.0624552 4.25238 0.0993977 4.30756 0.145961 4.354L3.14596 7.354C3.23985 7.44789 3.36719 7.50063 3.49996 7.50063C3.63274 7.50063 3.76007 7.44789 3.85396 7.354C3.94785 7.26011 4.00059 7.13278 4.00059 7C4.00059 6.86723 3.94785 6.73989 3.85396 6.646L1.20696 4L3.85396 1.354C3.90052 1.30756 3.93747 1.25238 3.96267 1.19163C3.98788 1.13089 4.00085 1.06577 4.00085 1C4.00085 0.934234 3.98788 0.869112 3.96267 0.808367C3.93747 0.747622 3.90052 0.692447 3.85396 0.646001Z" fill="#715648"/>
<path fill-rule="evenodd" clip-rule="evenodd" d="M12 4C12 3.86739 11.9473 3.74021 11.8536 3.64645C11.7598 3.55268 11.6326 3.5 11.5 3.5H1C0.867392 3.5 0.740214 3.55268 0.646446 3.64645C0.552678 3.74021 0.5 3.86739 0.5 4C0.5 4.13261 0.552678 4.25979 0.646446 4.35355C0.740214 4.44732 0.867392 4.5 1 4.5H11.5C11.6326 4.5 11.7598 4.44732 11.8536 4.35355C11.9473 4.25979 12 4.13261 12 4Z" fill="#715648"/>
</svg>
