<svg width="67" height="106" viewBox="0 0 67 106" fill="none" xmlns="http://www.w3.org/2000/svg">
<path fill-rule="evenodd" clip-rule="evenodd" d="M27.228 88.138C32.3542 90.9809 38.0533 96.6298 38.7521 102.9C23.2454 101.18 28.003 96.8215 27.228 88.138ZM28.5471 3.94486C29.5099 16.1137 25.1039 15.2621 20.8495 23.9679C19.8344 26.045 19.2571 29.0501 18.4604 30.8481C10.9993 29.7122 4.68974 29.4417 1.28804 35.153C5.93518 39.4243 3.85114 48.2829 11.2751 52.4658C10.2841 55.8058 5.6666 56.3068 1.76528 56.3714C4.56122 61.3561 6.84671 64.8877 12.4054 67.38C16.8023 69.3513 23.6151 72.7698 21.4061 78.3685C18.8142 75.4341 18.568 72.8147 13.6887 71.4729C9.70185 70.3765 4.17279 69.3168 0 69.5691C0.984444 76.2074 3.56378 78.0717 4.05113 85.7005C4.55725 93.62 4.52368 95.5529 11.1772 98.5232C17.9268 101.536 35.78 108.513 42.8015 105.064C43.1256 100.014 38.5272 96.3679 35.7811 93.3914L26.7883 83.0198C24.6476 80.9839 21.8032 76.9144 25.0165 73.3505C27.8929 74.3689 26.4681 81.9023 31.9394 85.8904C35.9346 88.8022 43.2549 89.783 48.5172 87.379C59.0905 82.5482 53.534 70.5502 61.1871 60.5536L62.4091 58.6908C63.7679 57.509 66.4772 54.4805 66.9999 51.7854C64.6372 46.3382 58.7591 46.7362 55.8328 43.2796C61.0662 38.1711 58.5977 32.6804 62.1694 24.7857C56.4891 23.9086 53.5686 24.4922 48.1186 25.1403C47.567 15.1071 46.5999 17.4799 42.7087 11.9731C40.6301 9.03109 39.3171 5.99005 37.3313 3.98793C35.4382 2.07911 30.3474 -0.385226 27.837 0.0504385C28.1554 1.42956 28.4344 2.52877 28.5463 3.94451L28.5471 3.94486ZM10.4022 33.9799C15.5378 31.0914 19.6326 38.4768 21.2881 42.1538C20.7369 43.6765 16.3543 47.38 14.7136 48.2693C10.7213 46.7652 5.02583 37.0023 10.4022 33.9795V33.9799ZM24.6667 23.1155C27.8648 17.9479 31.117 11.3684 33.5025 8.41994C34.4335 15.2014 31.5867 14.2842 30.2961 18.409C32.2881 19.997 34.2736 20.007 33.9339 22.3379C33.2946 26.7322 25.4161 23.6883 26.1977 43.4838C18.7131 40.2511 21.5643 28.1289 24.6671 23.1155H24.6667ZM36.3912 23.0617C36.6251 20.8195 34.2122 19.6327 35.6537 7.26116C39.5492 9.15346 38.1749 13.4584 39.0604 17.6895L43.6953 19.0546C47.5522 20.9814 43.7996 27.31 43.7307 31.803C40.5214 34.7428 37.1266 44.4362 29.2026 41.4217C24.2974 29.583 35.967 27.1316 36.3912 23.0621V23.0617ZM45.396 31.8299C47.9175 29.6476 51.0947 25.9097 55.1924 28.8388C58.2858 31.049 57.7082 39.7817 54.2654 41.2053C51.686 31.025 47.3302 36.4851 45.396 31.8299ZM32.0632 44.9458C33.5039 44.855 37.8161 46.2269 40.5438 47.4478C51.5727 52.384 27.6984 62.4179 32.0632 44.9458ZM41.7791 44.3084C42.1975 40.6724 46.0808 38.6839 49.9626 39.9751C49.0821 41.9769 45.0281 44.9447 41.7791 44.3084ZM26.698 48.0349C28.9626 52.2739 24.9107 53.78 32.2744 55.527L27.8164 60.8938C25.7338 63.0883 24.7674 66.1433 23.4158 69.5601C20.7444 68.3658 19.6304 65.6147 18.3759 62.4223L11.0917 62.7459C9.41593 56.7188 23.7382 44.3698 26.698 48.0349ZM40.7936 56.8412C46.3584 56.5006 53.8538 59.3482 55.2588 65.2792L50.9319 69.0839C52.1976 75.1208 53.8664 80.1614 48.3829 83.9424C44.3469 86.7255 36.7861 86.2162 33.5613 82.9983C41.8235 80.0843 41.6253 80.0871 41.0373 70.1017C37.7767 73.1018 37.6247 75.6688 32.1455 74.9159C26.2529 66.5822 30.577 57.4659 40.794 56.8408L40.7936 56.8412ZM54.1062 58.3168C53.1636 54.9485 48.9496 54.6302 45.0368 54.3373C45.6703 49.8852 46.0021 48.5054 48.8453 46.4107C53.4802 45.5498 60.8381 49.4969 63.6087 51.7858C62.7174 55.6849 60.6153 56.5831 58.6731 58.6459C57.4291 59.968 54.7899 60.7675 54.1062 58.3172V58.3168ZM33.1588 80.0613C33.5859 76.876 33.3953 77.668 36.2522 76.5261C38.0446 75.8094 38.2756 75.4154 39.9474 74.3736C39.4619 78.7762 37.524 80.7733 33.1592 80.0613H33.1588ZM4.33921 72.8549C18.0247 75.2191 23.8833 86.6953 24.4938 99.5072C21.0636 99.2837 9.50221 93.4808 8.17807 91.5318C6.35755 88.8514 8.73798 85.3431 8.71163 81.7142C8.6896 78.6972 5.80053 74.019 4.33885 72.8549H4.33921Z" fill="#D2B6A8"/>
</svg>
