<svg width="46" height="46" viewBox="0 0 46 46" fill="none" xmlns="http://www.w3.org/2000/svg">
<g clip-path="url(#clip0)">
<path d="M39.6993 17.7504C40.0715 17.7504 40.3731 17.4487 40.3731 17.0766V13.3795C40.3731 13.0074 40.0715 12.7057 39.6993 12.7057H34.9277V7.7528C34.9277 3.47785 31.4498 0 27.1749 0C25.6802 0 24.2469 0.422895 22.9994 1.22484C21.7934 0.451016 20.3614 0 18.8253 0C14.5503 0 11.0724 3.47785 11.0724 7.7528V12.7056H6.30078C5.92865 12.7056 5.62695 13.0073 5.62695 13.3794V17.8465C5.62695 18.2186 5.92865 18.5203 6.30078 18.5203C6.67291 18.5203 6.97461 18.2186 6.97461 17.8465V14.0533H29.5865V34.9492C29.5865 35.3214 29.8881 35.623 30.2603 35.623C30.6325 35.623 30.9341 35.3214 30.9341 34.9492V14.0534H34.3969V41.1026L30.9341 43.912V38.0938C30.9341 37.7216 30.6325 37.4199 30.2603 37.4199C29.8881 37.4199 29.5865 37.7216 29.5865 38.0938V44.6523H6.97461V20.9911C6.97461 20.619 6.67291 20.3173 6.30078 20.3173C5.92865 20.3173 5.62695 20.619 5.62695 20.9911V45.3262C5.62695 45.6983 5.92865 46 6.30078 46H39.6993C40.0715 46 40.3731 45.6983 40.3731 45.3262V20.2211C40.3731 19.849 40.0715 19.5473 39.6993 19.5473C39.3271 19.5473 39.0255 19.849 39.0255 20.2211V43.8767L35.7445 41.1104V14.0534H39.0255V17.0766C39.0255 17.4487 39.3272 17.7504 39.6993 17.7504ZM35.0625 42.298L37.8547 44.6523H32.1606L35.0625 42.298ZM27.1749 1.34766C30.7067 1.34766 33.58 4.22095 33.58 7.7528V12.7056H32.0235V7.7528C32.0235 5.07923 29.8485 2.9042 27.1749 2.9042C26.485 2.9042 25.8089 3.05037 25.1877 3.3306C24.8805 2.88991 24.5287 2.48283 24.139 2.11528C25.0678 1.61171 26.1021 1.34766 27.1749 1.34766ZM12.42 7.7528C12.42 4.22095 15.2934 1.34766 18.8253 1.34766C22.3571 1.34766 25.2304 4.22095 25.2304 7.7528V12.7056H23.6739V7.7528C23.6739 5.07923 21.4988 2.9042 18.8253 2.9042C16.1517 2.9042 13.9766 5.07923 13.9766 7.7528V12.7056H12.42V7.7528ZM19.422 12.7057H15.3242V7.7528C15.3242 5.82232 16.8948 4.25186 18.8253 4.25186C19.2885 4.25186 19.7305 4.34314 20.1356 4.50719C19.6676 5.52036 19.422 6.62921 19.422 7.7528V12.7057ZM20.7697 7.7528C20.7697 6.89236 20.9441 6.04271 21.2772 5.25694C21.9241 5.89249 22.3262 6.77637 22.3262 7.7528V12.7056H20.7697V7.7528ZM26.5781 12.7057V7.7528C26.5781 6.59489 26.3211 5.49646 25.8641 4.5089C26.2778 4.34107 26.7217 4.25186 27.1748 4.25186C29.1052 4.25186 30.6757 5.82232 30.6757 7.7528V12.7056H26.5781V12.7057Z" fill="white"/>
</g>
<defs>
<clipPath id="clip0">
<rect width="46" height="46" fill="white"/>
</clipPath>
</defs>
</svg>
